<?xml version="1.0" encoding="UTF-8"?>
<svg version="1.1" xmlns="http://www.w3.org/2000/svg" width="512" height="512">
<path d="M0 0 C0.70432271 -0.00350607 1.40864541 -0.00701215 2.13431123 -0.01062447 C4.48226688 -0.01989022 6.82997186 -0.01502775 9.17793751 -0.01015663 C10.88324634 -0.01389533 12.58855346 -0.01849773 14.29385787 -0.02388728 C18.97095638 -0.0361056 23.64798329 -0.03585818 28.3250941 -0.03349853 C33.37297691 -0.03309006 38.42083686 -0.04413236 43.46870899 -0.05361366 C53.35537958 -0.07021845 63.24202633 -0.07572298 73.1287097 -0.07683842 C81.16664557 -0.07778918 89.20457359 -0.08190088 97.24250698 -0.08823967 C120.03912892 -0.10585099 142.83573204 -0.11507876 165.63236084 -0.11357872 C166.86103838 -0.11349881 168.08971592 -0.1134189 169.35562611 -0.11333656 C170.58580657 -0.1132548 171.81598704 -0.11317304 173.08344571 -0.1130888 C193.01695483 -0.11227603 212.95038837 -0.13141182 232.88387563 -0.1596133 C253.35889175 -0.18835197 273.83387101 -0.20215303 294.30890781 -0.20042574 C305.80105711 -0.19976216 317.29312718 -0.20524048 328.78525829 -0.22678185 C338.57061411 -0.24500658 348.35585478 -0.24933034 358.14122023 -0.235763 C363.13119856 -0.22923981 368.12095606 -0.22909277 373.11091328 -0.2464695 C377.68503789 -0.26223393 382.25876721 -0.25930223 386.83288238 -0.24190123 C388.48158682 -0.23883875 390.13032101 -0.24243522 391.77899035 -0.25362138 C409.8263504 -0.36789541 425.01094372 4.27536612 438.305089 16.91742516 C450.16396871 29.08089938 455.90673781 43.19271005 455.85376453 60.0783596 C455.85829565 61.14591337 455.86282676 62.21346713 455.86749518 63.313371 C455.88012239 66.87894323 455.87851986 70.44436238 455.87686634 74.00995445 C455.88285267 76.57129169 455.88965845 79.13262712 455.89722157 81.69396019 C455.91304599 87.92299247 455.91932956 94.151969 455.92044632 100.3810195 C455.92139855 105.4479424 455.92551758 110.51485288 455.93184757 115.58177185 C455.94945138 129.9670918 455.95868792 144.35238197 455.95718662 158.73771276 C455.95706676 159.89969408 455.95706676 159.89969408 455.95694447 161.08514977 C455.9568627 161.86075679 455.95678094 162.63636381 455.9566967 163.43547408 C455.9558843 175.99716214 455.97501274 188.55873016 456.0032212 201.12038352 C456.03199835 214.03787985 456.04575881 226.95531773 456.04403365 239.8728469 C456.04337136 247.11727236 456.04879258 254.36157201 456.07038975 261.60596848 C456.09058277 268.42274354 456.0898786 275.23924952 456.07535648 282.0560379 C456.07327045 284.55166449 456.0779569 287.04730778 456.0900774 289.54290581 C456.1849908 310.44684187 453.97064736 327.15555029 438.92618275 342.97601891 C425.40825397 356.15543528 410.66295599 360.58551161 392.18399525 360.48431969 C390.73455787 360.48375478 389.28511992 360.48407368 387.83568287 360.4852047 C383.92094142 360.48577612 380.00632372 360.474056 376.09161091 360.46005678 C371.99301762 360.44751426 367.89442117 360.44637615 363.79581165 360.44400597 C356.04349562 360.43780152 348.29123631 360.42140477 340.5389452 360.40130699 C331.70943142 360.37891569 322.87991487 360.36794644 314.05037975 360.35791612 C295.89566085 360.33703758 277.74101967 360.30037434 259.586339 360.25726891 C259.586339 347.05726891 259.586339 333.85726891 259.586339 320.25726891 C263.66428822 320.23744957 267.74223743 320.21763023 271.94376087 320.19721031 C285.41870889 320.1302976 298.89357818 320.05275689 312.36843586 319.96974182 C320.5380565 319.9196703 328.70766738 319.87322685 336.87735462 319.83539391 C344.00000681 319.80240039 351.12258203 319.76252874 358.24514914 319.71447885 C362.01471353 319.68928686 365.78422735 319.66748424 369.55385303 319.65392494 C373.10628593 319.64103803 376.65854471 319.61891313 380.21088123 319.58988571 C382.12730004 319.57657807 384.04377825 319.57290129 385.96024036 319.56957054 C394.76290552 319.48451341 402.55439228 319.17049682 409.586339 313.25726891 C414.88522411 306.29930794 414.73422839 298.81699156 414.72005177 290.47824669 C414.72231732 289.4987121 414.72458288 288.51917751 414.72691709 287.50996006 C414.7332428 284.23056791 414.73242864 280.95121725 414.73160267 277.67181969 C414.73459503 275.31941232 414.73799774 272.96700545 414.74178028 270.61459923 C414.75061615 264.22618874 414.75295821 257.83779164 414.75359607 251.44937563 C414.75442599 246.78853249 414.75732546 242.12769233 414.76043255 237.46685024 C414.76873462 224.93147672 414.77247512 212.39611029 414.77176281 199.86073412 C414.77172285 199.14934939 414.7716829 198.43796466 414.77164173 197.70502281 C414.77160085 196.99276676 414.77155997 196.28051071 414.77151785 195.54667114 C414.77111139 184.00322684 414.78068197 172.45981516 414.7947801 160.9163803 C414.80915127 149.05553924 414.81604989 137.19471408 414.81518632 125.33386409 C414.81485463 118.67814347 414.81778466 112.02245292 414.82836437 105.36673927 C414.83804247 99.10737511 414.83812645 92.84808321 414.83084774 86.58871651 C414.82980158 84.29256396 414.83216663 81.99640691 414.8382082 79.70026207 C414.84592647 76.56350918 414.84128425 73.42700593 414.83357716 70.29025841 C414.8412925 68.9306102 414.8412925 68.9306102 414.84916371 67.54349434 C414.80613982 59.60778274 413.87458423 52.54599296 408.586339 46.25726891 C402.47718047 41.60479538 396.19921694 41.13306665 388.74838924 41.12863445 C388.08202047 41.12688142 387.41565169 41.12512838 386.72908992 41.12332222 C384.49830866 41.11867383 382.26759291 41.12112472 380.03680897 41.12355614 C378.42040989 41.12168758 376.80401127 41.1193867 375.18761337 41.11669081 C370.74719228 41.11057197 366.30679001 41.11070651 361.86636567 41.11188519 C357.07690436 41.11208917 352.2874491 41.1065707 347.49799061 41.10182762 C338.11538556 41.09352024 328.73278679 41.09077275 319.35017838 41.09021524 C311.72453035 41.08974016 304.0988844 41.08768581 296.47323704 41.08451462 C274.85689905 41.07570811 253.24056602 41.07109528 231.62422623 41.07184509 C230.45881817 41.07188505 229.29341011 41.071925 228.09268665 41.07196617 C226.34244241 41.07202749 226.34244241 41.07202749 224.55683969 41.07209005 C205.6415607 41.07249661 186.72630161 41.06292463 167.81102838 41.0488278 C148.39266529 41.03447012 128.9743119 41.02755727 109.55594337 41.02842158 C98.65248358 41.02875374 87.74904465 41.02599824 76.84558964 41.01524353 C67.56328805 41.00614657 58.28101679 41.00395669 48.99871267 41.01075295 C44.26258547 41.01402211 39.52651648 41.01406055 34.79039478 41.0053997 C30.45402218 40.99755138 26.1177541 40.99894906 21.7813841 41.00768384 C20.21346332 41.00922249 18.6455348 41.00738892 17.07762314 41.00182376 C2.3725517 40.72625678 2.3725517 40.72625678 -10.413661 47.25726891 C-15.71254612 54.21522987 -15.5615504 61.69754625 -15.54737377 70.03629112 C-15.55077211 71.50559301 -15.55077211 71.50559301 -15.55423909 73.00457776 C-15.5605648 76.2839699 -15.55975065 79.56332056 -15.55892467 82.84271812 C-15.56191704 85.19512549 -15.56531974 87.54753236 -15.56910229 89.89993858 C-15.57793815 96.28834907 -15.58028022 102.67674617 -15.58091807 109.06516218 C-15.581748 113.72600532 -15.58464746 118.38684548 -15.58775455 123.04768757 C-15.59605663 135.58306109 -15.59979713 148.11842752 -15.59908482 160.65380369 C-15.59902488 161.72088079 -15.59902488 161.72088079 -15.59896374 162.809515 C-15.59890242 163.87789908 -15.59890242 163.87789908 -15.59883986 164.96786667 C-15.59843339 176.51131097 -15.60800398 188.05472265 -15.6221021 199.59815751 C-15.63647328 211.45899857 -15.64337189 223.31982373 -15.64250833 235.18067372 C-15.64217664 241.83639434 -15.64510667 248.49208489 -15.65568638 255.14779854 C-15.66536448 261.4071627 -15.66544846 267.6664546 -15.65816975 273.9258213 C-15.65712359 276.22197386 -15.65948864 278.5181309 -15.6655302 280.81427574 C-15.67324848 283.95102863 -15.66860626 287.08753188 -15.66089916 290.2242794 C-15.66604273 291.13071154 -15.67118629 292.03714369 -15.67648572 292.97104347 C-15.63346183 300.90675507 -14.70190623 307.96854485 -9.413661 314.25726891 C-3.61966954 318.66972469 2.38141819 319.36962154 9.47095203 319.41548729 C10.62352497 319.42527611 11.77609791 319.43506493 12.9635973 319.44515038 C14.83879047 319.45378357 14.83879047 319.45378357 16.75186634 319.46259117 C18.09263879 319.47217992 19.43340828 319.48219058 20.77417469 319.49258995 C24.40178386 319.51953712 28.02940591 319.54060158 31.65705919 319.56059194 C35.45273347 319.58251462 39.24836853 319.60987247 43.04401112 319.63664818 C50.22614797 319.68649034 57.40830669 319.73146049 64.59048617 319.77467054 C72.76945567 319.82411552 80.9483858 319.87900665 89.12731719 319.93435013 C105.94695609 320.04804001 122.76663123 320.15418829 139.586339 320.25726891 C139.586339 333.45726891 139.586339 346.65726891 139.586339 360.25726891 C120.64443349 360.34775516 101.70270446 360.42135875 82.76063728 360.46451759 C73.96442172 360.48509453 65.16835053 360.51312137 56.37222767 360.55902672 C48.70059535 360.59904428 41.02906765 360.62473706 33.35733384 360.63362288 C29.29963417 360.63881253 25.24223366 360.65090694 21.18463039 360.68018913 C17.3555606 360.7075949 13.52690961 360.71566391 9.69775105 360.70969963 C8.30187602 360.71078875 6.90598513 360.71859176 5.51019573 360.73409081 C-11.821628 360.91690004 -26.51427124 355.59632467 -39.132411 343.59711266 C-50.99129072 331.43363843 -56.73405982 317.32182776 -56.68108654 300.43617821 C-56.68561765 299.36862445 -56.69014877 298.30107068 -56.69481719 297.20116681 C-56.7074444 293.63559458 -56.70584187 290.07017543 -56.70418835 286.50458336 C-56.71017467 283.94324612 -56.71698046 281.38191069 -56.72454357 278.82057762 C-56.740368 272.59154534 -56.74665156 266.36256881 -56.74776833 260.13351832 C-56.74872056 255.06659541 -56.75283959 249.99968493 -56.75916958 244.93276596 C-56.77677338 230.54744601 -56.78600993 216.16215584 -56.78450863 201.77682505 C-56.78442872 201.00217084 -56.78434881 200.22751663 -56.78426647 199.42938805 C-56.78418471 198.65378102 -56.78410295 197.878174 -56.78401871 197.07906374 C-56.7832063 184.51737567 -56.80233474 171.95580765 -56.83054321 159.39415429 C-56.85932036 146.47665796 -56.87308081 133.55922008 -56.87135565 120.64169091 C-56.87069336 113.39726545 -56.87611459 106.15296581 -56.89771175 98.90856934 C-56.91790477 92.09179427 -56.9172006 85.27528829 -56.90267849 78.45849991 C-56.90059246 75.96287332 -56.90527891 73.46723003 -56.91739941 70.971632 C-57.0123128 50.06769594 -54.79796937 33.35898752 -39.75350475 17.53851891 C-28.88725187 6.94437586 -15.38518436 0.0173744 0 0 Z " fill="#1CD8B8" transform="translate(56.41366100311279,-0.25726890563964844)"/>
<path d="M0 0 C12.38942635 6.75786892 12.38942635 6.75786892 18.08984375 10.14453125 C18.70799454 10.51128464 19.32614532 10.87803802 19.96302795 11.25590515 C21.95580999 12.43928022 23.94673739 13.62573136 25.9375 14.8125 C27.35610707 15.65627139 28.7747271 16.50002099 30.19335938 17.34375 C39.72995083 23.02178237 49.22751689 28.76180122 58.70431519 34.53897095 C68.09529965 40.26254557 77.53598755 45.89810429 87 51.5 C100.53931916 59.51592279 114.00622637 67.64329262 127.44140625 75.83251953 C133.23821702 79.36477384 139.04242387 82.88486355 144.84558105 86.40667725 C147.85041734 88.23036114 150.85488192 90.05465699 153.859375 91.87890625 C154.85420898 92.4829126 155.84904297 93.08691895 156.87402344 93.70922852 C157.5755957 94.13518311 158.27716797 94.5611377 159 95 C157.6796353 98.9610941 156.13539314 99.36517686 152.54296875 101.4140625 C151.97739258 101.740578 151.41181641 102.06709351 150.82910156 102.40350342 C149.59989793 103.11210561 148.36837603 103.81669785 147.13485718 104.51776123 C143.79791868 106.41509559 140.47839484 108.3425456 137.15625 110.265625 C136.47201462 110.66063202 135.78777924 111.05563904 135.08280945 111.46261597 C128.38920503 115.33396257 121.78404645 119.34068556 115.1875 123.375 C105.1692301 129.49257905 95.10215167 135.52199982 85 141.5 C74.96289986 147.44031538 64.95850028 153.42882704 55 159.5 C44.64074182 165.81207671 34.24158429 172.05394636 23.8125 178.25 C23.13227783 178.65468506 22.45205566 179.05937012 21.7512207 179.47631836 C19.79988632 180.63677011 17.84742038 181.79529198 15.89453125 182.953125 C14.77925049 183.61473633 13.66396973 184.27634766 12.51489258 184.95800781 C8.375966 187.36253528 4.18432577 189.67537457 0 192 C0 128.64 0 65.28 0 0 Z M40 72 C40 87.84 40 103.68 40 120 C49.16258461 114.76423736 58.30607512 109.51850928 67.375 104.125 C68.50421875 103.46242188 69.6334375 102.79984375 70.796875 102.1171875 C71.86164063 101.48296875 72.92640625 100.84875 74.0234375 100.1953125 C74.98169434 99.62828613 75.93995117 99.06125977 76.92724609 98.47705078 C77.61125488 97.98962402 78.29526367 97.50219727 79 97 C79 96.34 79 95.68 79 95 C76.7766184 93.49930864 74.56348914 92.13140905 72.24609375 90.7890625 C71.55242203 90.37965424 70.85875031 89.97024597 70.14405823 89.5484314 C67.91254719 88.23366199 65.67513826 86.92930851 63.4375 85.625 C61.95468619 84.75327051 60.47225928 83.88088253 58.99023438 83.0078125 C52.68253835 79.29760006 46.3540171 75.63086692 40 72 Z " fill="#1BD6BB" transform="translate(196,84)"/>
<path d="M0 0 C13.2 0 26.4 0 40 0 C40.33 37.62 40.66 75.24 41 114 C44.96 110.04 48.92 106.08 53 102 C56.96875 98.52734375 56.96875 98.52734375 58.85546875 96.91748047 C63.9491171 92.36311866 68.68869179 87.41170942 73.5 82.5625 C74.61955632 81.4379167 75.73934629 80.31356595 76.859375 79.18945312 C79.57561534 76.46230656 82.28868292 73.73204093 85 71 C92.51028102 74.54753047 97.85866532 81.70597326 103.15625 87.953125 C106.03134636 91.14496927 109.20632674 94.02420669 112.375 96.921875 C114 99 114 99 113.94140625 101.05859375 C112.86682304 103.27464293 111.71884885 104.612306 109.9375 106.3125 C109.38964844 106.84488281 108.84179688 107.37726563 108.27734375 107.92578125 C106.32495276 109.70403102 104.341093 111.42837606 102.34008789 113.15112305 C98.14341914 116.82083348 94.19703052 120.6908935 90.28125 124.65625 C89.57907349 125.36221313 88.87689697 126.06817627 88.15344238 126.79553223 C85.93315397 129.02791358 83.71616045 131.26352111 81.5 133.5 C78.57590521 136.45090378 75.64836943 139.39833203 72.71875 142.34375 C71.735578 143.33936951 71.735578 143.33936951 70.73254395 144.35510254 C67.5828233 147.52122694 64.38974939 150.57245065 61.0065918 153.48901367 C56.85323198 157.07419341 53.01147521 160.91226617 49.17578125 164.83203125 C47.72098895 166.30431894 46.2659023 167.77631583 44.81054688 169.24804688 C42.54934004 171.54032712 40.2905767 173.83487018 38.03686523 176.13452148 C35.83989989 178.37377728 33.6336253 180.60350799 31.42578125 182.83203125 C30.7548494 183.52158401 30.08391754 184.21113678 29.39265442 184.92158508 C26.14876297 188.18313702 23.57043671 190.76079177 19 192 C9.65708013 183.93202016 1.05745003 175.13798513 -7.625 166.375 C-10.53085842 163.44231827 -13.44017637 160.51313061 -16.3515625 157.5859375 C-17.32532333 156.59972916 -17.32532333 156.59972916 -18.3187561 155.59359741 C-21.45248219 152.44338306 -24.63147072 149.40845224 -27.99560547 146.50439453 C-32.0953761 142.96478775 -35.91439234 139.19627296 -39.71875 135.34375 C-40.42092651 134.63778687 -41.12310303 133.93182373 -41.84655762 133.20446777 C-44.81383766 130.22102625 -47.77505363 127.2315929 -50.73681641 124.24267578 C-52.91618465 122.04509421 -55.09864947 119.85062062 -57.28125 117.65625 C-57.936698 116.99250366 -58.592146 116.32875732 -59.26745605 115.64489746 C-63.15053132 111.74159913 -67.13900663 108.11414152 -71.42370605 104.65270996 C-73.22551315 102.76355437 -73.72304477 101.5794249 -74 99 C-72.84765625 97.29589844 -72.84765625 97.29589844 -71.0625 95.609375 C-70.41780762 94.98595215 -69.77311523 94.3625293 -69.10888672 93.72021484 C-68.4129541 93.07004395 -67.71702148 92.41987305 -67 91.75 C-65.60500028 90.40548044 -64.21174742 89.05914591 -62.8203125 87.7109375 C-62.15290039 87.06866211 -61.48548828 86.42638672 -60.79785156 85.76464844 C-58.15580722 83.17139796 -55.75053281 80.41116028 -53.36328125 77.5859375 C-51.36346237 75.25950063 -49.20151176 73.13479928 -47 71 C-42.72403882 72.64724338 -39.89924223 75.86617853 -36.765625 79.07421875 C-35.87034088 79.97730522 -35.87034088 79.97730522 -34.95697021 80.89863586 C-33.04982435 82.82355915 -31.14947934 84.75501347 -29.25 86.6875 C-26.75861982 89.21563092 -24.26405092 91.74055038 -21.765625 94.26171875 C-20.86704773 95.16867996 -20.86704773 95.16867996 -19.95031738 96.09396362 C-16.3726242 99.68392624 -12.74104127 103.14999882 -8.83496094 106.38598633 C-6.10050888 108.79118358 -3.57509242 111.42490758 -1 114 C-0.67 76.38 -0.34 38.76 0 0 Z " fill="#07ADEB" transform="translate(236,320)"/>
</svg>
